<svg width="600" height="600" viewBox="0 0 600 600" fill="none" xmlns="http://www.w3.org/2000/svg">
<path d="M276.285 529.8C276.358 528.702 276.678 527.822 277.243 527.158C277.789 526.493 278.466 525.957 279.275 525.55C280.064 525.142 280.919 524.808 281.838 524.549C282.736 524.308 283.585 524.055 284.385 523.787C285.164 523.519 285.828 523.192 286.374 522.808C286.901 522.422 287.188 521.89 287.233 521.212L287.477 517.56L287.538 516.662C287.572 516.143 287.443 515.684 287.149 515.283L287.063 515.217C286.768 514.837 286.383 514.6 285.908 514.508L285.91 514.478L291.717 514.867L291.715 514.897C291.272 514.928 290.88 515.092 290.539 515.39L290.348 515.557C290.024 515.896 289.847 516.305 289.814 516.784L288.714 533.218C288.724 533.679 288.887 534.081 289.205 534.423C289.502 534.784 289.887 535.02 290.36 535.132L290.356 535.192L289.758 535.152L288.56 535.071L286.375 534.925L281.795 534.619C281.117 534.573 280.445 534.428 279.78 534.183C279.094 533.957 278.484 533.635 277.95 533.219C277.416 532.822 276.997 532.333 276.695 531.752C276.374 531.169 276.237 530.518 276.285 529.8ZM286.341 534.532L287.153 522.409C286.861 522.871 286.445 523.244 285.905 523.528C285.364 523.833 284.774 524.104 284.137 524.342C283.498 524.6 282.85 524.857 282.191 525.114C281.531 525.39 280.927 525.731 280.379 526.135C279.811 526.538 279.336 527.047 278.954 527.663C278.572 528.279 278.349 529.066 278.284 530.024C278.243 530.642 278.316 531.199 278.503 531.692C278.69 532.206 278.971 532.646 279.347 533.012C279.704 533.376 280.145 533.666 280.672 533.882C281.199 534.098 281.772 534.226 282.39 534.268L286.341 534.532Z" fill="white"/>
<path d="M249.528 510.909C249.416 510.355 249.167 509.876 248.78 509.471C248.393 509.066 247.925 508.807 247.376 508.696L247.382 508.666L254.203 510.053L254.197 510.082C253.903 510.022 253.636 510.029 253.396 510.103C253.133 510.193 252.911 510.331 252.73 510.519C252.53 510.702 252.384 510.918 252.293 511.165C252.198 511.431 252.172 511.711 252.214 512.006L252.723 514.62L252.723 514.773L261.601 516.577L263.309 514.353C263.577 513.938 263.678 513.489 263.613 513.006C263.544 512.543 263.315 512.16 262.928 511.857L262.934 511.827L266.55 512.562L266.544 512.592C265.904 512.727 265.337 513.01 264.841 513.44C264.326 513.866 263.879 514.356 263.501 514.912L262.496 516.392L260.238 519.668L255.061 527.218L255.388 529.978L255.193 530.03L252.967 530.588L249.65 511.668L249.528 510.909ZM252.78 515.243L252.809 515.402L253.023 516.609L254.839 526.652L259.881 519.319L261.482 517.012L252.78 515.243Z" fill="white"/>
<path d="M224.994 512.123C224.518 511.725 224.154 511.25 223.902 510.696C223.631 510.136 223.417 509.533 223.26 508.886C223.104 508.238 222.983 507.551 222.897 506.822C222.786 506.106 222.678 505.381 222.573 504.646C222.45 503.904 222.304 503.165 222.136 502.429C221.949 501.687 221.689 500.972 221.356 500.285L224.275 501.299C224.374 501.502 224.439 501.895 224.469 502.478C224.493 503.079 224.516 503.775 224.538 504.566C224.56 505.357 224.61 506.189 224.687 507.063C224.739 507.949 224.852 508.782 225.026 509.562C225.2 510.342 225.451 511.022 225.779 511.602C226.1 512.2 226.535 512.595 227.083 512.785C227.612 512.969 228.178 513.166 228.783 513.376C229.362 513.598 229.812 513.765 230.134 513.876L232.426 507.273L232.722 506.423C232.807 506.177 232.851 505.928 232.854 505.675C232.832 505.434 232.775 505.203 232.683 504.98L232.646 504.904C232.462 504.459 232.153 504.129 231.719 503.915L231.729 503.887L237.227 505.796L237.217 505.824C236.763 505.73 236.332 505.782 235.925 505.979L235.724 506.1C235.322 506.341 235.04 506.698 234.876 507.171L229.483 522.701C229.37 523.149 229.421 523.58 229.637 523.993C229.828 524.419 230.137 524.749 230.564 524.982L230.545 525.039L229.978 524.842L228.844 524.448L226.776 523.73L222.241 522.155C221.013 521.729 220.062 521.145 219.388 520.403C218.714 519.661 218.282 518.865 218.09 518.015C217.898 517.165 217.927 516.317 218.178 515.473C218.423 514.647 218.852 513.929 219.467 513.316C220.075 512.723 220.859 512.296 221.817 512.036C222.75 511.789 223.809 511.818 224.994 512.123ZM225.896 512.818C225.008 512.509 224.193 512.48 223.45 512.73C222.688 512.974 222.041 513.374 221.509 513.93C220.97 514.505 220.566 515.18 220.298 515.955C220.022 516.748 219.921 517.528 219.993 518.294C220.059 519.08 220.316 519.804 220.763 520.467C221.191 521.124 221.849 521.607 222.737 521.915L226.847 523.342L230.006 514.245L226.605 513.064L226.576 513.054L225.896 512.818Z" fill="white"/>
<path d="M200.349 493.911L200.755 493.108C200.981 492.662 201.036 492.197 200.922 491.713L200.883 491.525C200.741 491.095 200.479 490.75 200.095 490.489L200.109 490.462L205.303 493.087L205.29 493.114C204.852 492.96 204.405 492.958 203.948 493.108L203.814 493.175C203.357 493.37 203.011 493.699 202.776 494.163L202.601 494.511L202.384 494.94L195.876 507.819L195.66 508.247L195.484 508.595C195.249 509.059 195.189 509.533 195.303 510.017L195.343 510.137C195.414 510.352 195.516 510.55 195.649 510.729C195.773 510.926 195.938 511.088 196.143 511.214L196.116 511.268L195.581 510.997L191.457 508.913L190.922 508.643L190.949 508.589C191.377 508.761 191.811 508.767 192.25 508.608L192.411 508.555C192.868 508.36 193.21 508.04 193.435 507.594L193.841 506.79L200.349 493.911Z" fill="white"/>
<path d="M172.309 492.089C172.739 491.463 172.947 490.842 172.933 490.226C172.92 489.61 172.767 488.984 172.476 488.347C172.174 487.727 171.791 487.101 171.328 486.468C170.838 485.84 170.336 485.192 169.824 484.525C169.3 483.874 168.812 483.224 168.361 482.575C167.893 481.914 167.536 481.232 167.29 480.53C167.033 479.844 166.932 479.143 166.986 478.429C167.029 477.73 167.299 477.018 167.797 476.293C168.182 475.732 168.662 475.261 169.239 474.881C169.816 474.5 170.493 474.274 171.27 474.201C172.048 474.129 172.931 474.238 173.92 474.528C174.898 474.836 175.981 475.397 177.168 476.212C178.338 477.016 179.28 477.747 179.992 478.405C180.688 479.053 181.238 479.612 181.642 480.084C182.106 480.645 182.443 481.143 182.654 481.579L181.093 483.163C181.185 482.499 181.103 481.788 180.847 481.03C180.628 480.395 180.236 479.676 179.67 478.875C179.076 478.08 178.185 477.274 176.998 476.459C176.124 475.859 175.3 475.488 174.525 475.344C173.75 475.2 173.06 475.199 172.453 475.341C171.819 475.487 171.28 475.724 170.837 476.051C170.367 476.383 170.013 476.722 169.775 477.068C169.255 477.827 169.097 478.604 169.302 479.4C169.497 480.213 169.874 481.042 170.434 481.887C170.982 482.749 171.611 483.617 172.321 484.492C173.03 485.367 173.636 486.269 174.139 487.196C174.631 488.141 174.924 489.093 175.016 490.054C175.108 491.015 174.809 491.999 174.119 493.004C173.745 493.549 173.268 493.997 172.686 494.35C172.093 494.719 171.421 494.937 170.672 495.005C169.91 495.089 169.082 495.005 168.187 494.755C167.264 494.509 166.291 494.035 165.269 493.334C164.329 492.688 163.569 492.082 162.989 491.514C162.392 490.934 161.924 490.431 161.586 490.005C161.205 489.501 160.917 489.036 160.723 488.612L162.284 487.027C162.22 487.686 162.274 488.367 162.448 489.068C162.6 489.658 162.902 490.314 163.353 491.036C163.804 491.758 164.499 492.441 165.439 493.086C166.28 493.663 167.068 493.999 167.805 494.092C168.514 494.19 169.174 494.147 169.787 493.961C170.372 493.78 170.883 493.512 171.321 493.158C171.742 492.792 172.071 492.436 172.309 492.089Z" fill="white"/>
<path d="M129.127 448.189C128.104 449.054 127.172 449.423 126.331 449.296C125.475 449.181 124.743 448.765 124.136 448.047C123.542 447.345 123.26 446.562 123.29 445.699C123.291 444.833 123.804 443.968 124.827 443.103C125.835 442.251 126.774 441.889 127.643 442.019C128.499 442.133 129.224 442.541 129.818 443.244C130.425 443.962 130.713 444.752 130.684 445.616C130.654 446.479 130.135 447.336 129.127 448.189Z" fill="white"/>
<path d="M86.5492 389.468C87.547 389.005 88.4728 388.862 89.3267 389.039C90.1721 389.198 90.9676 389.535 91.7132 390.049C92.4504 390.544 93.1535 391.133 93.8226 391.815C94.4652 392.487 95.0958 393.109 95.7144 393.682C96.3245 394.237 96.9296 394.661 97.5294 394.956C98.1209 395.233 98.725 395.228 99.3418 394.942L102.662 393.401L103.478 393.023C103.95 392.804 104.291 392.469 104.501 392.019L104.517 391.912C104.709 391.47 104.731 391.019 104.584 390.558L104.611 390.546L107.061 395.825L107.033 395.838C106.794 395.464 106.461 395.199 106.037 395.043L105.797 394.956C105.345 394.835 104.901 394.876 104.465 395.078L89.5253 402.011C89.1249 402.241 88.8511 402.577 88.704 403.02C88.5302 403.454 88.5081 403.905 88.6376 404.374L88.5832 404.399L88.3306 403.855L87.8255 402.767L86.9037 400.78L84.9716 396.617C84.6853 396 84.4898 395.341 84.385 394.64C84.2536 393.929 84.2424 393.24 84.3514 392.572C84.4422 391.912 84.67 391.31 85.0349 390.766C85.3913 390.204 85.8961 389.771 86.5492 389.468ZM87.2322 400.562L98.2533 395.447C97.7085 395.413 97.1815 395.228 96.6723 394.891C96.145 394.562 95.6239 394.176 95.1089 393.731C94.5758 393.295 94.0385 392.85 93.497 392.396C92.9373 391.95 92.3485 391.584 91.7305 391.297C91.104 390.993 90.429 390.821 89.7053 390.782C88.9817 390.743 88.1845 390.925 87.3137 391.329C86.7513 391.59 86.2987 391.922 85.9559 392.323C85.5949 392.733 85.3444 393.191 85.2044 393.697C85.0559 394.185 85.0137 394.712 85.0778 395.277C85.1418 395.843 85.3043 396.407 85.5653 396.969L87.2322 400.562Z" fill="white"/>
<path d="M90.2568 356.925C90.6883 356.561 90.9887 356.112 91.158 355.578C91.3274 355.044 91.3291 354.509 91.1632 353.974L91.1918 353.965L93.2539 360.613L93.2253 360.622C93.1364 360.335 93.002 360.105 92.8222 359.93C92.6174 359.742 92.3892 359.614 92.1376 359.546C91.8801 359.458 91.6212 359.434 91.3611 359.473C91.0818 359.517 90.8232 359.629 90.5854 359.807L88.5381 361.51L88.4037 361.584L91.088 370.237L93.8592 370.665C94.3519 370.701 94.7942 370.574 95.1862 370.285C95.559 370.002 95.7853 369.617 95.8651 369.132L95.8937 369.123L96.987 372.647L96.9583 372.656C96.5322 372.16 96.0116 371.798 95.3965 371.57C94.7754 371.323 94.1302 371.167 93.461 371.103L91.6807 370.932L87.7228 370.527L78.6136 369.615L76.3499 371.228L76.2106 371.083L74.6518 369.399L89.6491 357.397L90.2568 356.925ZM88.0184 361.86L87.8929 361.962L86.9374 362.729L79.0029 369.148L87.8563 370.046L90.6493 370.341L88.0184 361.86Z" fill="white"/>
<path d="M77.4011 335.994C77.5216 335.385 77.7638 334.838 78.1278 334.35C78.4885 333.843 78.915 333.366 79.4073 332.917C79.8996 332.469 80.4446 332.033 81.0422 331.607C81.6167 331.165 82.2011 330.722 82.7954 330.277C83.3863 329.812 83.964 329.329 84.5286 328.829C85.0898 328.308 85.5918 327.737 86.0344 327.114L86.5484 330.161C86.4172 330.346 86.1037 330.591 85.6078 330.898C85.0922 331.208 84.4928 331.563 83.8097 331.962C83.1266 332.361 82.4205 332.805 81.6916 333.293C80.9395 333.764 80.2632 334.264 79.6625 334.791C79.0619 335.318 78.5862 335.865 78.2355 336.431C77.865 337.001 77.7281 337.572 77.8245 338.143C77.9177 338.696 78.0175 339.287 78.1239 339.918C78.2073 340.533 78.2773 341.008 78.3339 341.343L85.2265 340.181L86.1139 340.031C86.3703 339.988 86.6102 339.907 86.8335 339.788C87.0338 339.653 87.2094 339.491 87.3603 339.304L87.4095 339.234C87.7113 338.859 87.8518 338.43 87.8311 337.946L87.8607 337.941L88.8287 343.68L88.7992 343.685C88.6635 343.242 88.4113 342.889 88.0425 342.626L87.8401 342.508C87.4352 342.272 86.9862 342.196 86.4932 342.279L70.2822 345.014C69.8352 345.13 69.4823 345.382 69.2233 345.77C68.9412 346.142 68.8007 346.572 68.8017 347.058L68.7425 347.068L68.6427 346.477L68.4431 345.293L68.0788 343.134L67.2805 338.401C67.0642 337.119 67.1196 336.004 67.4465 335.057C67.7735 334.109 68.2635 333.347 68.9167 332.77C69.5699 332.194 70.327 331.812 71.1881 331.627C72.0295 331.444 72.8663 331.475 73.6987 331.72C74.5113 331.969 75.2619 332.45 75.9505 333.166C76.616 333.865 77.0996 334.808 77.4011 335.994ZM77.2258 337.119C77.0694 336.192 76.703 335.463 76.1266 334.931C75.5468 334.38 74.8852 334.005 74.1417 333.806C73.3785 333.61 72.5926 333.58 71.7841 333.716C70.9558 333.856 70.2231 334.142 69.5861 334.574C68.9293 335.009 68.4175 335.582 68.0507 336.293C67.6805 336.985 67.5735 337.794 67.7299 338.721L68.4534 343.01L77.9493 341.408L77.3505 337.858L77.3455 337.829L77.2258 337.119Z" fill="white"/>
<path d="M81.5285 305.629L82.428 305.599C82.9277 305.582 83.3621 305.408 83.7312 305.075L83.8771 304.95C84.1862 304.62 84.3631 304.224 84.4077 303.762L84.4377 303.761L84.6321 309.578L84.6021 309.579C84.5268 309.121 84.3136 308.728 83.9624 308.399L83.8394 308.313C83.449 308.006 82.9939 307.861 82.4742 307.879L82.0844 307.892L81.6046 307.908L67.1827 308.39L66.703 308.406L66.3132 308.419C65.7935 308.436 65.3491 308.611 64.98 308.944L64.893 309.037C64.7385 309.202 64.6146 309.386 64.5213 309.59C64.408 309.794 64.3454 310.016 64.3335 310.256L64.2735 310.258L64.2535 309.659L64.0991 305.041L64.079 304.442L64.139 304.44C64.1943 304.898 64.3973 305.281 64.7478 305.59L64.8717 305.706C65.2622 306.013 65.7073 306.158 66.207 306.141L67.1065 306.111L81.5285 305.629Z" fill="white"/>
<path d="M69.6502 280.163C70.4064 280.239 71.0513 280.123 71.5848 279.815C72.1183 279.507 72.5942 279.073 73.0125 278.512C73.4108 277.949 73.7764 277.312 74.1091 276.602C74.424 275.87 74.7508 275.119 75.0896 274.349C75.4085 273.577 75.7442 272.837 76.0969 272.128C76.4516 271.4 76.8778 270.76 77.3757 270.207C77.8536 269.652 78.419 269.226 79.072 268.93C79.705 268.632 80.4593 268.527 81.3349 268.615C82.0115 268.683 82.6551 268.878 83.2659 269.201C83.8766 269.524 84.4007 270.009 84.8382 270.656C85.2756 271.303 85.6045 272.13 85.8248 273.137C86.0252 274.142 86.0533 275.361 85.9092 276.794C85.767 278.207 85.5783 279.384 85.3429 280.325C85.1095 281.246 84.8832 281.997 84.6639 282.578C84.3949 283.255 84.1199 283.79 83.8391 284.184L81.6991 283.577C82.3261 283.338 82.9105 282.924 83.4521 282.336C83.9041 281.838 84.3454 281.149 84.7757 280.268C85.1882 279.365 85.4665 278.197 85.6107 276.764C85.7168 275.709 85.6467 274.808 85.4003 274.059C85.154 273.311 84.823 272.705 84.4074 272.241C83.9738 271.755 83.5074 271.396 83.008 271.165C82.4907 270.912 82.0231 270.765 81.6053 270.723C80.6899 270.63 79.9325 270.866 79.3332 271.429C78.7139 271.99 78.1682 272.719 77.696 273.616C77.2039 274.511 76.7447 275.48 76.3182 276.522C75.8917 277.565 75.3926 278.53 74.8209 279.417C74.2293 280.302 73.5344 281.016 72.736 281.559C71.9377 282.102 70.9316 282.312 69.7177 282.19C69.061 282.124 68.4382 281.921 67.8494 281.58C67.2406 281.238 66.7265 280.754 66.3069 280.128C65.8675 279.501 65.5426 278.735 65.3322 277.829C65.1039 276.902 65.0518 275.821 65.1759 274.587C65.29 273.453 65.4567 272.495 65.6761 271.713C65.8975 270.911 66.1138 270.26 66.325 269.758C66.5841 269.181 66.853 268.706 67.1319 268.332L69.2718 268.939C68.6627 269.199 68.0923 269.574 67.5607 270.063C67.1167 270.481 66.6865 271.061 66.2701 271.803C65.8537 272.545 65.5885 273.483 65.4744 274.617C65.3723 275.632 65.4573 276.485 65.7296 277.176C65.9839 277.845 66.3398 278.403 66.7973 278.851C67.2368 279.277 67.7172 279.597 68.2385 279.81C68.7618 280.004 69.2323 280.121 69.6502 280.163Z" fill="white"/>
<path d="M87.3967 221.197C86.1462 220.716 85.3747 220.076 85.0822 219.277C84.7709 218.471 84.7843 217.63 85.1221 216.753C85.4527 215.894 86.0037 215.271 86.775 214.882C87.5348 214.467 88.5399 214.501 89.7904 214.982C91.0222 215.457 91.7901 216.106 92.0941 216.93C92.4053 217.736 92.3956 218.568 92.065 219.427C91.7271 220.304 91.1726 220.937 90.4013 221.326C89.63 221.714 88.6285 221.672 87.3967 221.197Z" fill="white"/>
<path d="M118.429 155.639C119.315 156.291 119.885 157.035 120.14 157.868C120.407 158.686 120.495 159.545 120.402 160.446C120.322 161.331 120.143 162.231 119.867 163.145C119.587 164.031 119.344 164.883 119.139 165.701C118.946 166.503 118.864 167.238 118.894 167.905C118.935 168.557 119.23 169.085 119.777 169.488L122.724 171.659L123.448 172.193C123.867 172.501 124.324 172.639 124.82 172.607L124.922 172.57C125.401 172.526 125.808 172.329 126.141 171.978L126.165 171.996L122.712 176.681L122.688 176.663C122.901 176.274 122.973 175.855 122.906 175.408L122.867 175.156C122.756 174.701 122.506 174.331 122.12 174.046L108.86 164.276C108.466 164.036 108.04 163.957 107.58 164.041C107.117 164.097 106.711 164.295 106.361 164.634L106.313 164.598L106.669 164.115L107.381 163.149L108.68 161.386L111.403 157.691C111.806 157.143 112.29 156.655 112.854 156.226C113.414 155.769 114.013 155.428 114.652 155.203C115.274 154.966 115.911 154.876 116.563 154.935C117.228 154.977 117.85 155.212 118.429 155.639ZM109.029 161.569L118.811 168.776C118.579 168.282 118.488 167.731 118.539 167.122C118.574 166.502 118.662 165.859 118.805 165.194C118.931 164.517 119.063 163.832 119.201 163.139C119.323 162.433 119.361 161.741 119.316 161.062C119.282 160.366 119.108 159.691 118.794 159.038C118.481 158.385 117.938 157.773 117.165 157.204C116.666 156.836 116.157 156.598 115.641 156.491C115.108 156.371 114.586 156.372 114.075 156.492C113.575 156.596 113.093 156.812 112.628 157.14C112.163 157.468 111.746 157.882 111.378 158.381L109.029 161.569Z" fill="white"/>
<path d="M148.75 143.25C149.276 143.454 149.815 143.501 150.364 143.393C150.914 143.285 151.384 143.03 151.773 142.627L151.795 142.648L146.956 147.651L146.935 147.63C147.143 147.414 147.281 147.186 147.347 146.944C147.414 146.674 147.416 146.413 147.355 146.159C147.309 145.891 147.206 145.652 147.046 145.443C146.873 145.219 146.651 145.046 146.38 144.924L143.903 143.947L143.774 143.864L137.476 150.376L138.432 153.012C138.637 153.462 138.961 153.789 139.403 153.993C139.831 154.184 140.276 154.198 140.74 154.035L140.762 154.056L138.197 156.708L138.175 156.687C138.405 156.075 138.473 155.445 138.377 154.796C138.295 154.132 138.122 153.492 137.857 152.874L137.15 151.231L135.604 147.565L132.026 139.138L129.524 137.928L129.584 137.736L130.311 135.56L148.044 142.944L148.75 143.25ZM143.346 143.659L143.197 143.598L142.064 143.129L132.622 139.255L136.09 147.451L137.173 150.042L143.346 143.659Z" fill="white"/>
<path d="M160.927 121.917C161.519 121.731 162.116 121.68 162.718 121.765C163.336 121.837 163.96 121.982 164.589 122.198C165.219 122.415 165.864 122.683 166.524 123.002C167.187 123.294 167.857 123.593 168.533 123.901C169.225 124.195 169.926 124.47 170.636 124.724C171.362 124.966 172.105 125.132 172.863 125.221L170.438 127.136C170.214 127.11 169.847 126.953 169.34 126.665C168.82 126.362 168.221 126.007 167.543 125.6C166.865 125.193 166.136 124.787 165.358 124.382C164.583 123.949 163.82 123.596 163.069 123.323C162.318 123.049 161.61 122.895 160.945 122.859C160.267 122.808 159.701 122.962 159.246 123.322C158.806 123.669 158.335 124.041 157.833 124.437C157.334 124.806 156.951 125.096 156.684 125.306L161.016 130.792L161.574 131.498C161.735 131.702 161.922 131.874 162.133 132.013C162.348 132.123 162.574 132.2 162.811 132.242L162.895 132.252C163.37 132.336 163.814 132.253 164.228 132.002L164.246 132.026L159.679 135.633L159.66 135.609C159.984 135.277 160.172 134.886 160.225 134.437L160.231 134.203C160.244 133.734 160.095 133.304 159.785 132.911L149.596 120.009C149.28 119.673 148.889 119.485 148.424 119.444C147.962 119.376 147.518 119.459 147.092 119.694L147.054 119.646L147.525 119.275L148.467 118.531L150.186 117.174L153.953 114.199C154.973 113.393 155.977 112.906 156.965 112.737C157.953 112.569 158.857 112.632 159.677 112.928C160.496 113.223 161.195 113.704 161.771 114.37C162.336 115.02 162.711 115.769 162.896 116.617C163.069 117.449 163.007 118.339 162.71 119.286C162.417 120.206 161.823 121.083 160.927 121.917ZM159.857 122.304C160.594 121.722 161.058 121.05 161.247 120.289C161.452 119.516 161.463 118.755 161.28 118.007C161.085 117.244 160.733 116.541 160.225 115.897C159.704 115.238 159.102 114.733 158.417 114.382C157.719 114.015 156.971 113.842 156.171 113.861C155.387 113.869 154.626 114.164 153.888 114.747L150.474 117.443L156.443 125L159.268 122.769L159.291 122.75L159.857 122.304Z" fill="white"/>
<path d="M189.539 110.944L189.998 111.718C190.253 112.149 190.615 112.446 191.084 112.61L191.263 112.677C191.702 112.79 192.134 112.754 192.561 112.572L192.576 112.597L187.568 115.563L187.553 115.538C187.918 115.252 188.16 114.876 188.28 114.41L188.296 114.261C188.378 113.771 188.286 113.302 188.021 112.855L187.822 112.519L187.578 112.106L180.224 99.6904L179.979 99.2774L179.781 98.9418C179.516 98.4944 179.149 98.1888 178.68 98.0249L178.556 97.9933C178.337 97.9372 178.116 97.9171 177.893 97.933C177.66 97.9316 177.435 97.9835 177.218 98.0886L177.187 98.037L177.704 97.7312L181.679 95.3768L182.195 95.071L182.226 95.1227C181.85 95.3915 181.611 95.7537 181.509 96.2093L181.467 96.3737C181.386 96.8638 181.472 97.3239 181.727 97.7541L182.186 98.5285L189.539 110.944Z" fill="white"/>
<path d="M206.163 88.2894C206.459 88.9891 206.871 89.4988 207.398 89.8186C207.924 90.1384 208.534 90.3469 209.227 90.4441C209.912 90.5229 210.646 90.5375 211.429 90.488C212.222 90.4122 213.038 90.3379 213.876 90.265C214.706 90.1736 215.517 90.1124 216.307 90.0813C217.116 90.0423 217.883 90.1083 218.607 90.2792C219.323 90.4316 219.968 90.723 220.542 91.1532C221.107 91.5651 221.562 92.1761 221.906 92.9863C222.171 93.6123 222.309 94.2707 222.319 94.9614C222.33 95.6521 222.157 96.3447 221.799 97.0393C221.442 97.7339 220.875 98.4197 220.098 99.0969C219.312 99.7557 218.257 100.366 216.931 100.928C215.624 101.483 214.501 101.883 213.563 102.129C212.643 102.367 211.875 102.529 211.26 102.616C210.538 102.705 209.936 102.721 209.456 102.664L208.96 100.496C209.47 100.931 210.114 101.245 210.891 101.437C211.544 101.594 212.36 101.65 213.34 101.604C214.33 101.532 215.488 101.214 216.814 100.652C217.79 100.238 218.547 99.7436 219.085 99.1679C219.623 98.5922 219.995 98.0106 220.203 97.4232C220.42 96.8095 220.51 96.2281 220.473 95.6791C220.446 95.1039 220.351 94.6229 220.187 94.2363C219.828 93.3893 219.258 92.8382 218.476 92.5831C217.687 92.3096 216.785 92.1814 215.771 92.1985C214.75 92.1972 213.679 92.2601 212.56 92.3871C211.441 92.5141 210.355 92.5401 209.302 92.4652C208.241 92.3718 207.281 92.1055 206.422 91.6663C205.562 91.227 204.894 90.4458 204.418 89.3226C204.16 88.715 204.039 88.0711 204.055 87.391C204.063 86.6925 204.24 86.0091 204.587 85.3407C204.925 84.654 205.441 84.0007 206.134 83.381C206.838 82.735 207.761 82.17 208.902 81.6859C209.952 81.2409 210.872 80.9267 211.663 80.7432C212.473 80.552 213.148 80.4285 213.689 80.3728C214.32 80.3227 214.866 80.3301 215.328 80.3949L215.824 82.5634C215.303 82.1543 214.7 81.8342 214.016 81.6031C213.436 81.4145 212.721 81.3159 211.87 81.3073C211.019 81.2988 210.069 81.5171 209.019 81.9621C208.08 82.3603 207.373 82.8448 206.898 83.4154C206.434 83.9599 206.115 84.5404 205.942 85.1569C205.78 85.7471 205.73 86.322 205.794 86.8817C205.876 87.4335 205.999 87.9027 206.163 88.2894Z" fill="white"/>
<path d="M266.402 75.514C266.223 74.1859 266.414 73.2018 266.973 72.5615C267.53 71.9013 268.275 71.5086 269.206 71.3833C270.118 71.2607 270.93 71.4442 271.641 71.9337C272.37 72.4007 272.824 73.2983 273.002 74.6263C273.178 75.9345 272.978 76.92 272.401 77.5828C271.844 78.2429 271.11 78.6343 270.198 78.7569C269.266 78.8822 268.445 78.7001 267.733 78.2106C267.022 77.7211 266.578 76.8222 266.402 75.514Z" fill="white"/>
<path d="M338.807 71.2219C338.661 72.312 338.283 73.1694 337.674 73.7938C337.085 74.4209 336.374 74.9104 335.539 75.2624C334.725 75.617 333.85 75.8929 332.916 76.09C332.004 76.2701 331.14 76.4667 330.324 76.6799C329.528 76.8957 328.844 77.1771 328.273 77.524C327.722 77.8737 327.401 78.3854 327.31 79.0594L326.822 82.6867L326.702 83.5787C326.633 84.094 326.731 84.5613 326.998 84.9806L327.079 85.0521C327.348 85.4515 327.717 85.7129 328.184 85.8364L328.18 85.8661L322.412 85.0904L322.416 85.0607C322.86 85.0598 323.262 84.9222 323.622 84.6477L323.825 84.4933C324.17 84.1765 324.374 83.7802 324.438 83.3045L326.634 66.9815C326.655 66.5202 326.519 66.1084 326.225 65.7459C325.953 65.3663 325.584 65.1049 325.119 64.9616L325.127 64.9021L325.722 64.9821L326.911 65.1421L329.082 65.434L333.631 66.0457C334.305 66.1364 334.965 66.3261 335.613 66.615C336.282 66.8867 336.869 67.2481 337.374 67.6994C337.881 68.1308 338.266 68.6467 338.528 69.247C338.81 69.85 338.903 70.5083 338.807 71.2219ZM329.089 65.8285L327.47 77.8701C327.791 77.429 328.231 77.0846 328.789 76.8367C329.35 76.5691 329.956 76.3378 330.608 76.1429C331.262 75.9283 331.927 75.7149 332.601 75.5029C333.278 75.271 333.904 74.9717 334.478 74.605C335.071 74.2409 335.579 73.7643 336.002 73.1754C336.424 72.5864 336.699 71.8162 336.827 70.8648C336.91 70.2503 336.874 69.6905 336.72 69.1855C336.569 68.6606 336.317 68.2031 335.966 67.8128C335.635 67.4252 335.214 67.1062 334.702 66.8558C334.191 66.6054 333.628 66.4389 333.014 66.3563L329.089 65.8285Z" fill="white"/>
<path d="M364.242 91.8578C364.317 92.4174 364.534 92.9123 364.893 93.3425C365.252 93.7726 365.702 94.0617 366.242 94.2096L366.234 94.2386L359.521 92.3998L359.529 92.3708C359.819 92.4501 360.085 92.4609 360.329 92.4033C360.598 92.3317 360.828 92.2083 361.022 92.0331C361.234 91.8632 361.394 91.6581 361.501 91.4179C361.614 91.1584 361.659 90.8805 361.636 90.584L361.302 87.9419L361.313 87.7893L352.575 85.3957L350.723 87.5012C350.428 87.8973 350.297 88.3383 350.329 88.8242C350.368 89.2909 350.57 89.6884 350.936 90.0168L350.928 90.0458L347.369 89.0709L347.377 89.042C348.024 88.9497 348.61 88.7057 349.133 88.3098C349.675 87.9193 350.154 87.4593 350.568 86.9301L351.67 85.521L354.141 82.4032L359.812 75.2159L359.67 72.4398L359.867 72.4006L362.125 71.9926L364.172 91.092L364.242 91.8578ZM361.287 87.3157L361.269 87.1552L361.136 85.9368L359.995 75.7949L354.475 82.7745L352.723 84.9696L361.287 87.3157Z" fill="white"/>
<path d="M388.803 92.2847C389.251 92.7136 389.582 93.2127 389.797 93.7817C390.03 94.3586 390.204 94.975 390.316 95.6311C390.429 96.2873 390.504 96.9816 390.541 97.7141C390.604 98.4361 390.663 99.1672 390.719 99.9076C390.793 100.656 390.889 101.403 391.007 102.148C391.144 102.901 391.355 103.632 391.642 104.34L388.797 103.133C388.712 102.924 388.674 102.527 388.682 101.944C388.698 101.343 388.722 100.647 388.753 99.8561C388.784 99.0655 388.79 98.2316 388.771 97.3546C388.778 96.4669 388.721 95.6281 388.6 94.8381C388.479 94.0481 388.274 93.3529 387.985 92.7526C387.704 92.134 387.297 91.7114 386.763 91.485C386.247 91.2663 385.695 91.0321 385.106 90.7823C384.543 90.5218 384.105 90.3252 383.792 90.1925L381.063 96.6278L380.712 97.4564C380.61 97.6958 380.549 97.9416 380.529 98.1937C380.536 98.4353 380.577 98.6702 380.654 98.8984L380.686 98.9771C380.84 99.4334 381.126 99.7829 381.545 100.026L381.533 100.053L376.175 97.7811L376.187 97.7535C376.634 97.8778 377.067 97.8551 377.486 97.6854L377.695 97.5783C378.111 97.364 378.417 97.0266 378.613 96.5663L385.031 81.4308C385.173 80.9917 385.151 80.5585 384.963 80.1312C384.801 79.6932 384.514 79.3437 384.104 79.0827L384.127 79.0274L384.68 79.2617L385.784 79.7301L387.801 80.5851L392.22 82.459C393.416 82.9665 394.326 83.613 394.949 84.3984C395.572 85.1839 395.951 86.007 396.085 86.8679C396.22 87.7287 396.134 88.5721 395.827 89.3978C395.528 90.2052 395.051 90.8938 394.397 91.4635C393.751 92.0149 392.941 92.3883 391.967 92.5837C391.02 92.7686 389.965 92.6689 388.803 92.2847ZM387.949 91.5316C388.814 91.8986 389.626 91.9821 390.384 91.7823C391.161 91.5902 391.833 91.2344 392.401 90.7149C392.977 90.1769 393.425 89.5305 393.745 88.7756C394.073 88.0022 394.226 87.2309 394.205 86.4615C394.191 85.6737 393.983 84.9339 393.582 84.2421C393.198 83.5582 392.574 83.0327 391.708 82.6658L387.704 80.9676L383.944 89.8334L387.258 91.2388L387.286 91.2505L387.949 91.5316Z" fill="white"/>
<path d="M412.176 112.102L411.718 112.877C411.463 113.307 411.376 113.767 411.458 114.257L411.485 114.447C411.597 114.886 411.836 115.248 412.201 115.534L412.186 115.56L407.178 112.594L407.193 112.568C407.62 112.751 408.066 112.782 408.532 112.663L408.67 112.606C409.139 112.442 409.506 112.136 409.771 111.689L409.97 111.353L410.215 110.94L417.568 98.5247L417.813 98.1117L418.012 97.7762C418.277 97.3288 418.368 96.86 418.287 96.37L418.255 96.2467C418.199 96.0275 418.11 95.8239 417.989 95.636C417.878 95.4308 417.725 95.2584 417.528 95.1189L417.559 95.0673L418.075 95.3731L422.05 97.7275L422.567 98.0333L422.536 98.0849C422.12 97.8849 421.687 97.8496 421.239 97.9791L421.074 98.0212C420.605 98.185 420.244 98.4821 419.989 98.9123L419.53 99.6866L412.176 112.102Z" fill="white"/>
<path d="M440.032 115.793C439.561 116.389 439.312 116.995 439.285 117.611C439.257 118.226 439.368 118.861 439.615 119.515C439.876 120.154 440.215 120.805 440.635 121.467C441.083 122.127 441.54 122.806 442.007 123.506C442.486 124.19 442.929 124.872 443.336 125.55C443.759 126.241 444.07 126.945 444.268 127.662C444.478 128.363 444.533 129.069 444.431 129.779C444.342 130.473 444.024 131.165 443.479 131.855C443.058 132.389 442.547 132.827 441.946 133.168C441.345 133.509 440.654 133.69 439.874 133.71C439.093 133.731 438.219 133.563 437.251 133.207C436.296 132.835 435.254 132.203 434.124 131.31C433.009 130.43 432.119 129.638 431.452 128.933C430.801 128.24 430.29 127.646 429.918 127.148C429.493 126.557 429.19 126.038 429.009 125.589L430.672 124.112C430.536 124.769 430.57 125.484 430.775 126.257C430.951 126.906 431.294 127.649 431.805 128.486C432.345 129.319 433.18 130.182 434.31 131.075C435.142 131.732 435.939 132.158 436.703 132.353C437.466 132.548 438.155 132.595 438.77 132.494C439.412 132.39 439.966 132.19 440.429 131.893C440.921 131.594 441.297 131.279 441.557 130.949C442.127 130.227 442.336 129.462 442.184 128.654C442.045 127.83 441.724 126.978 441.222 126.097C440.732 125.201 440.163 124.292 439.513 123.372C438.864 122.452 438.319 121.512 437.879 120.552C437.451 119.577 437.223 118.607 437.195 117.642C437.167 116.677 437.531 115.716 438.288 114.759C438.697 114.241 439.203 113.825 439.807 113.512C440.423 113.184 441.108 113.011 441.861 112.993C442.626 112.96 443.446 113.099 444.323 113.409C445.228 113.715 446.167 114.253 447.14 115.021C448.034 115.728 448.752 116.384 449.293 116.99C449.85 117.608 450.283 118.141 450.592 118.589C450.939 119.117 451.195 119.6 451.36 120.036L449.697 121.513C449.805 120.86 449.796 120.177 449.67 119.466C449.557 118.867 449.299 118.192 448.898 117.442C448.497 116.692 447.848 115.963 446.954 115.257C446.153 114.625 445.389 114.238 444.66 114.095C443.959 113.95 443.297 113.949 442.673 114.094C442.078 114.235 441.55 114.468 441.09 114.793C440.645 115.13 440.293 115.463 440.032 115.793Z" fill="white"/>
<path d="M480.185 162.48C481.264 161.685 482.219 161.379 483.049 161.562C483.896 161.734 484.598 162.198 485.156 162.954C485.701 163.695 485.931 164.495 485.843 165.354C485.784 166.218 485.215 167.047 484.136 167.842C483.073 168.625 482.113 168.923 481.254 168.735C480.408 168.564 479.712 168.108 479.166 167.368C478.608 166.611 478.373 165.803 478.46 164.944C478.548 164.084 479.123 163.263 480.185 162.48Z" fill="white"/>
<path d="M518.746 223.913C517.72 224.308 516.786 224.389 515.946 224.155C515.113 223.94 514.342 223.552 513.632 222.989C512.93 222.445 512.268 221.811 511.646 221.086C511.049 220.373 510.462 219.71 509.883 219.097C509.311 218.502 508.736 218.038 508.157 217.704C507.585 217.388 506.982 217.353 506.348 217.597L502.932 218.912L502.092 219.236C501.607 219.423 501.245 219.734 501.005 220.169L500.981 220.275C500.76 220.703 500.708 221.151 500.825 221.621L500.797 221.632L498.705 216.201L498.733 216.19C498.947 216.579 499.261 216.865 499.675 217.049L499.907 217.152C500.351 217.303 500.797 217.292 501.245 217.119L516.614 211.2C517.029 210.997 517.325 210.679 517.501 210.247C517.704 209.826 517.756 209.378 517.658 208.901L517.714 208.879L517.93 209.439L518.361 210.559L519.148 212.603L520.798 216.886C521.042 217.521 521.193 218.191 521.251 218.898C521.334 219.615 521.3 220.304 521.146 220.963C521.012 221.615 520.744 222.2 520.344 222.719C519.95 223.256 519.418 223.654 518.746 223.913ZM518.806 212.799L507.467 217.166C508.009 217.236 508.522 217.456 509.008 217.826C509.512 218.189 510.006 218.61 510.49 219.088C510.993 219.559 511.499 220.039 512.009 220.528C512.538 221.01 513.101 221.415 513.699 221.742C514.303 222.088 514.965 222.304 515.685 222.392C516.404 222.479 517.212 222.35 518.108 222.005C518.686 221.782 519.16 221.482 519.529 221.104C519.916 220.719 520.197 220.279 520.37 219.783C520.551 219.306 520.628 218.784 520.602 218.215C520.576 217.646 520.452 217.073 520.229 216.494L518.806 212.799Z" fill="white"/>
<path d="M512.873 256.136C512.418 256.47 512.089 256.898 511.884 257.42C511.679 257.942 511.642 258.475 511.772 259.02L511.743 259.026L510.129 252.256L510.158 252.249C510.228 252.541 510.347 252.78 510.514 252.966C510.706 253.167 510.925 253.31 511.172 253.395C511.423 253.5 511.679 253.542 511.942 253.52C512.223 253.494 512.489 253.4 512.738 253.238L514.894 251.676L515.033 251.612L512.933 242.798L510.197 242.186C509.707 242.118 509.258 242.215 508.847 242.477C508.456 242.734 508.205 243.103 508.093 243.582L508.064 243.589L507.208 239.999L507.237 239.992C507.629 240.516 508.125 240.912 508.723 241.18C509.326 241.468 509.96 241.667 510.623 241.776L512.388 242.065L516.31 242.734L525.338 244.252L527.704 242.794L527.834 242.948L529.277 244.732L513.511 255.706L512.873 256.136ZM515.436 251.361L515.568 251.268L516.573 250.566L524.918 244.692L516.145 243.205L513.378 242.723L515.436 251.361Z" fill="white"/>
<path d="M524.302 277.879C524.141 278.478 523.863 279.008 523.467 279.47C523.073 279.952 522.616 280.4 522.095 280.814C521.574 281.229 521.001 281.628 520.376 282.013C519.773 282.415 519.161 282.818 518.538 283.223C517.917 283.647 517.309 284.09 516.712 284.552C516.117 285.034 515.578 285.571 515.095 286.162L514.786 283.088C514.929 282.912 515.258 282.688 515.773 282.415C516.309 282.14 516.93 281.827 517.639 281.474C518.347 281.121 519.081 280.726 519.841 280.287C520.623 279.867 521.331 279.414 521.965 278.928C522.6 278.442 523.111 277.928 523.499 277.387C523.906 276.843 524.081 276.283 524.023 275.706C523.967 275.149 523.907 274.552 523.843 273.915C523.801 273.296 523.763 272.817 523.729 272.479L516.774 273.179L515.878 273.269C515.62 273.295 515.375 273.36 515.144 273.463C514.935 273.585 514.749 273.734 514.586 273.911L514.533 273.977C514.206 274.332 514.037 274.751 514.026 275.234L513.996 275.237L513.413 269.446L513.443 269.443C513.549 269.895 513.777 270.264 514.127 270.55L514.322 270.682C514.71 270.944 515.153 271.05 515.65 271L532.008 269.355C532.461 269.269 532.83 269.041 533.115 268.67C533.421 268.318 533.59 267.899 533.621 267.413L533.681 267.407L533.741 268.004L533.861 269.198L534.08 271.377L534.561 276.153C534.691 277.447 534.561 278.555 534.172 279.479C533.782 280.403 533.242 281.13 532.552 281.662C531.862 282.194 531.081 282.524 530.21 282.651C529.358 282.777 528.525 282.69 527.711 282.39C526.917 282.088 526.2 281.557 525.561 280.797C524.943 280.056 524.524 279.083 524.302 277.879ZM524.552 276.768C524.646 277.703 524.963 278.456 525.503 279.024C526.044 279.613 526.68 280.032 527.408 280.28C528.156 280.526 528.939 280.608 529.755 280.526C530.59 280.442 531.34 280.206 532.005 279.818C532.689 279.427 533.238 278.889 533.652 278.205C534.067 277.54 534.228 276.74 534.134 275.804L533.698 271.476L524.117 272.44L524.477 276.022L524.48 276.052L524.552 276.768Z" fill="white"/>
<path d="M518.156 307.9L517.256 307.87C516.757 307.853 516.312 307.999 515.921 308.306L515.767 308.421C515.437 308.73 515.234 309.113 515.158 309.571L515.128 309.57L515.323 303.753L515.353 303.754C515.397 304.216 515.584 304.622 515.912 304.974L516.029 305.068C516.398 305.4 516.843 305.575 517.362 305.592L517.752 305.605L518.232 305.621L532.654 306.104L533.134 306.12L533.523 306.133C534.043 306.15 534.498 306.005 534.889 305.698L534.982 305.611C535.147 305.457 535.283 305.281 535.39 305.085C535.516 304.889 535.593 304.671 535.621 304.432L535.681 304.434L535.661 305.034L535.507 309.651L535.487 310.251L535.427 310.249C535.402 309.788 535.226 309.391 534.896 309.06L534.78 308.936C534.411 308.604 533.977 308.429 533.477 308.412L532.578 308.382L518.156 307.9Z" fill="white"/>
<path d="M528.307 334.102C527.557 333.976 526.906 334.049 526.353 334.32C525.8 334.592 525.296 334.994 524.842 335.526C524.406 336.061 523.999 336.672 523.62 337.358C523.257 338.067 522.88 338.795 522.491 339.541C522.121 340.29 521.737 341.006 521.338 341.689C520.935 342.392 520.467 343.002 519.933 343.521C519.419 344.042 518.827 344.429 518.156 344.681C517.504 344.936 516.744 344.991 515.877 344.844C515.206 344.731 514.577 344.493 513.989 344.13C513.401 343.768 512.911 343.249 512.517 342.574C512.124 341.899 511.851 341.052 511.699 340.032C511.566 339.016 511.619 337.798 511.859 336.378C512.095 334.978 512.362 333.816 512.66 332.893C512.954 331.989 513.23 331.255 513.488 330.69C513.801 330.033 514.111 329.517 514.418 329.143L516.513 329.892C515.871 330.088 515.26 330.462 514.681 331.013C514.196 331.479 513.71 332.137 513.222 332.988C512.75 333.861 512.394 335.008 512.155 336.428C511.978 337.473 511.988 338.378 512.184 339.141C512.38 339.904 512.669 340.531 513.053 341.022C513.453 341.535 513.895 341.924 514.378 342.188C514.877 342.475 515.333 342.654 515.748 342.723C516.655 342.876 517.426 342.692 518.062 342.171C518.717 341.652 519.31 340.961 519.841 340.098C520.392 339.237 520.915 338.301 521.41 337.29C521.906 336.278 522.468 335.348 523.098 334.501C523.747 333.658 524.488 332.992 525.321 332.503C526.154 332.015 527.172 331.872 528.375 332.075C529.025 332.185 529.633 332.43 530.198 332.809C530.783 333.191 531.263 333.709 531.64 334.36C532.037 335.015 532.31 335.802 532.459 336.719C532.625 337.66 532.605 338.742 532.398 339.964C532.209 341.089 531.978 342.033 531.707 342.799C531.433 343.584 531.174 344.22 530.929 344.706C530.632 345.265 530.332 345.721 530.029 346.075L527.934 345.327C528.56 345.108 529.154 344.772 529.717 344.319C530.188 343.932 530.656 343.382 531.121 342.67C531.586 341.957 531.913 341.039 532.103 339.915C532.272 338.909 532.244 338.052 532.019 337.345C531.81 336.661 531.492 336.08 531.066 335.602C530.655 335.147 530.197 334.796 529.692 334.549C529.182 334.321 528.721 334.172 528.307 334.102Z" fill="white"/>
<path d="M506.661 391.752C507.877 392.316 508.604 393.006 508.842 393.822C509.099 394.647 509.029 395.486 508.634 396.338C508.247 397.173 507.655 397.758 506.86 398.095C506.074 398.458 505.073 398.357 503.858 397.793C502.66 397.237 501.938 396.538 501.689 395.695C501.433 394.871 501.498 394.041 501.885 393.206C502.281 392.354 502.876 391.759 503.672 391.423C504.467 391.086 505.464 391.196 506.661 391.752Z" fill="white"/>
<path d="M471.319 455.091C470.479 454.381 469.96 453.601 469.761 452.752C469.549 451.918 469.519 451.055 469.672 450.162C469.811 449.285 470.049 448.399 470.386 447.506C470.725 446.64 471.024 445.806 471.283 445.004C471.529 444.217 471.66 443.489 471.675 442.821C471.677 442.168 471.419 441.622 470.899 441.183L468.104 438.82L467.417 438.239C467.02 437.903 466.573 437.735 466.076 437.734L465.972 437.764C465.491 437.776 465.072 437.945 464.716 438.273L464.694 438.254L468.451 433.809L468.474 433.829C468.236 434.203 468.136 434.616 468.173 435.067L468.195 435.321C468.276 435.783 468.5 436.168 468.866 436.478L481.444 447.112C481.821 447.378 482.241 447.485 482.705 447.432C483.171 447.407 483.59 447.237 483.961 446.922L484.007 446.961L483.619 447.419L482.845 448.335L481.431 450.008L478.467 453.513C478.028 454.032 477.513 454.487 476.921 454.877C476.332 455.295 475.711 455.596 475.059 455.778C474.423 455.973 473.781 456.02 473.134 455.918C472.474 455.831 471.869 455.556 471.319 455.091ZM481.094 449.802L471.816 441.957C472.014 442.466 472.068 443.022 471.977 443.626C471.901 444.242 471.769 444.878 471.583 445.532C471.412 446.199 471.234 446.874 471.05 447.556C470.881 448.252 470.797 448.94 470.797 449.621C470.784 450.318 470.913 451.002 471.182 451.675C471.451 452.348 471.952 452.994 472.685 453.614C473.159 454.014 473.65 454.285 474.159 454.427C474.682 454.582 475.203 454.617 475.721 454.531C476.226 454.46 476.722 454.276 477.208 453.98C477.694 453.684 478.137 453.299 478.537 452.826L481.094 449.802Z" fill="white"/>
<path d="M440.239 465.426C439.727 465.188 439.193 465.104 438.638 465.176C438.082 465.247 437.596 465.47 437.181 465.846L437.161 465.824L442.323 461.155L442.343 461.177C442.12 461.379 441.968 461.597 441.885 461.834C441.801 462.099 441.781 462.36 441.824 462.617C441.853 462.887 441.94 463.132 442.085 463.352C442.243 463.587 442.453 463.774 442.715 463.915L445.122 465.055L445.245 465.146L451.964 459.069L451.186 456.375C451.011 455.913 450.71 455.565 450.282 455.331C449.869 455.112 449.425 455.069 448.951 455.201L448.931 455.178L451.667 452.703L451.688 452.725C451.417 453.321 451.308 453.945 451.36 454.599C451.397 455.267 451.527 455.918 451.75 456.552L452.345 458.238L453.644 461.999L456.651 470.646L459.067 472.02L458.994 472.208L458.122 474.331L440.922 465.779L440.239 465.426ZM445.658 465.379L445.803 465.45L446.901 465.994L456.064 470.489L453.151 462.081L452.244 459.423L445.658 465.379Z" fill="white"/>
<path d="M426.664 485.898C426.061 486.045 425.462 486.056 424.867 485.931C424.255 485.817 423.642 485.632 423.029 485.374C422.415 485.116 421.789 484.805 421.152 484.442C420.509 484.107 419.861 483.763 419.207 483.412C418.537 483.071 417.856 482.751 417.164 482.449C416.455 482.159 415.726 481.945 414.975 481.805L417.523 480.056C417.745 480.098 418.1 480.279 418.587 480.599C419.085 480.936 419.659 481.331 420.309 481.782C420.958 482.234 421.658 482.688 422.407 483.144C423.152 483.627 423.89 484.031 424.621 484.353C425.352 484.676 426.048 484.878 426.709 484.958C427.382 485.054 427.957 484.938 428.435 484.61C428.897 484.293 429.392 483.953 429.919 483.591C430.442 483.256 430.843 482.993 431.124 482.801L427.168 477.038L426.658 476.296C426.511 476.081 426.337 475.898 426.135 475.745C425.928 475.621 425.707 475.529 425.474 475.471L425.39 475.456C424.923 475.34 424.474 475.393 424.044 475.616L424.027 475.591L428.826 472.297L428.843 472.322C428.497 472.632 428.283 473.009 428.201 473.454L428.179 473.687C428.135 474.154 428.255 474.593 428.538 475.005L437.842 488.559C438.135 488.916 438.513 489.13 438.974 489.201C439.43 489.3 439.879 489.247 440.32 489.041L440.354 489.091L439.859 489.431L438.87 490.11L437.064 491.349L433.107 494.066C432.035 494.801 431.001 495.22 430.004 495.323C429.007 495.425 428.109 495.301 427.311 494.952C426.513 494.602 425.848 494.075 425.317 493.373C424.798 492.686 424.474 491.914 424.346 491.056C424.229 490.214 424.35 489.33 424.709 488.405C425.063 487.507 425.715 486.671 426.664 485.898ZM427.758 485.584C426.983 486.116 426.476 486.755 426.236 487.502C425.98 488.26 425.918 489.018 426.051 489.776C426.194 490.551 426.498 491.276 426.962 491.952C427.438 492.645 428.005 493.189 428.665 493.585C429.337 493.998 430.072 494.221 430.871 494.254C431.654 494.299 432.433 494.055 433.208 493.523L436.794 491.062L431.344 483.122L428.376 485.16L428.351 485.177L427.758 485.584Z" fill="white"/>
<path d="M397.383 494.936L396.977 494.133C396.751 493.687 396.41 493.366 395.953 493.171L395.778 493.092C395.348 492.95 394.914 492.957 394.477 493.111L394.463 493.084L399.658 490.459L399.671 490.486C399.288 490.747 399.021 491.106 398.871 491.563L398.845 491.71C398.73 492.194 398.791 492.667 399.025 493.132L399.201 493.48L399.417 493.908L405.926 506.787L406.142 507.216L406.318 507.564C406.552 508.028 406.898 508.357 407.355 508.552L407.476 508.592C407.691 508.662 407.91 508.697 408.134 508.696C408.367 508.713 408.595 508.676 408.818 508.586L408.845 508.64L408.309 508.91L404.186 510.994L403.65 511.264L403.623 511.211C404.016 510.968 404.278 510.622 404.41 510.175L404.463 510.013C404.578 509.53 404.522 509.065 404.297 508.619L403.891 507.815L397.383 494.936Z" fill="white"/>
<path d="M379.283 516.43C379.034 515.712 378.657 515.176 378.153 514.822C377.649 514.467 377.055 514.219 376.37 514.075C375.691 513.951 374.96 513.887 374.176 513.885C373.379 513.907 372.56 513.927 371.719 513.944C370.885 513.979 370.072 513.986 369.281 513.964C368.471 513.949 367.711 513.832 367 513.613C366.295 513.413 365.671 513.08 365.128 512.612C364.591 512.163 364.178 511.523 363.889 510.692C363.666 510.05 363.572 509.384 363.608 508.694C363.644 508.004 363.863 507.324 364.266 506.655C364.669 505.986 365.28 505.34 366.101 504.716C366.929 504.111 368.022 503.572 369.383 503.1C370.724 502.634 371.871 502.31 372.824 502.127C373.758 501.951 374.535 501.84 375.154 501.795C375.881 501.754 376.482 501.778 376.957 501.867L377.307 504.064C376.827 503.595 376.206 503.239 375.444 502.996C374.803 502.795 373.992 502.685 373.011 502.666C372.018 502.672 370.842 502.911 369.481 503.383C368.48 503.731 367.692 504.174 367.116 504.713C366.541 505.251 366.131 505.806 365.885 506.379C365.627 506.977 365.498 507.551 365.498 508.101C365.486 508.677 365.549 509.163 365.687 509.56C365.989 510.429 366.521 511.017 367.284 511.323C368.054 511.649 368.945 511.837 369.957 511.888C370.976 511.957 372.049 511.966 373.174 511.914C374.299 511.862 375.384 511.909 376.43 512.054C377.482 512.218 378.422 512.548 379.25 513.043C380.079 513.539 380.693 514.363 381.093 515.516C381.31 516.139 381.388 516.79 381.326 517.467C381.272 518.164 381.049 518.834 380.659 519.477C380.275 520.14 379.717 520.757 378.984 521.329C378.238 521.927 377.28 522.429 376.109 522.836C375.032 523.21 374.093 523.462 373.291 523.592C372.47 523.729 371.788 523.807 371.244 523.826C370.612 523.834 370.068 523.79 369.611 523.695L369.261 521.498C369.754 521.941 370.334 522.3 371.001 522.577C371.567 522.804 372.274 522.95 373.122 523.015C373.971 523.081 374.933 522.926 376.01 522.552C376.974 522.218 377.712 521.782 378.224 521.244C378.723 520.732 379.08 520.174 379.294 519.57C379.495 518.992 379.583 518.422 379.557 517.859C379.512 517.303 379.421 516.827 379.283 516.43Z" fill="white"/>
<path d="M318.325 525.153C318.415 526.49 318.159 527.459 317.558 528.061C316.958 528.682 316.189 529.024 315.251 529.087C314.333 529.149 313.535 528.911 312.858 528.375C312.162 527.861 311.769 526.935 311.68 525.598C311.592 524.281 311.858 523.311 312.477 522.688C313.077 522.067 313.836 521.725 314.754 521.664C315.692 521.601 316.5 521.838 317.177 522.374C317.854 522.91 318.237 523.836 318.325 525.153Z" fill="white"/>
</svg>
